<?xml version="1.0" encoding="UTF-8" standalone="no"?>
<!-- Created with Inkscape (http://www.inkscape.org/) -->

<svg
   xmlns:dc="http://purl.org/dc/elements/1.1/"
   xmlns:cc="http://creativecommons.org/ns#"
   xmlns:rdf="http://www.w3.org/1999/02/22-rdf-syntax-ns#"
   xmlns:svg="http://www.w3.org/2000/svg"
   xmlns="http://www.w3.org/2000/svg"
   xmlns:sodipodi="http://sodipodi.sourceforge.net/DTD/sodipodi-0.dtd"
   xmlns:inkscape="http://www.inkscape.org/namespaces/inkscape"
   width="744.09448819"
   height="1052.3622047"
   id="svg3680"
   version="1.1"
   inkscape:version="0.47 r22583"
   sodipodi:docname="New document 5">
  <defs
     id="defs3682">
    <inkscape:perspective
       sodipodi:type="inkscape:persp3d"
       inkscape:vp_x="0 : 526.18109 : 1"
       inkscape:vp_y="0 : 1000 : 0"
       inkscape:vp_z="744.09448 : 526.18109 : 1"
       inkscape:persp3d-origin="372.04724 : 350.78739 : 1"
       id="perspective3688" />
    <inkscape:perspective
       id="perspective3668"
       inkscape:persp3d-origin="0.5 : 0.33333333 : 1"
       inkscape:vp_z="1 : 0.5 : 1"
       inkscape:vp_y="0 : 1000 : 0"
       inkscape:vp_x="0 : 0.5 : 1"
       sodipodi:type="inkscape:persp3d" />
  </defs>
  <sodipodi:namedview
     id="base"
     pagecolor="#ffffff"
     bordercolor="#666666"
     borderopacity="1.0"
     inkscape:pageopacity="0.0"
     inkscape:pageshadow="2"
     inkscape:zoom="0.175"
     inkscape:cx="375"
     inkscape:cy="520"
     inkscape:document-units="px"
     inkscape:current-layer="layer1"
     showgrid="false"
     inkscape:window-width="1366"
     inkscape:window-height="706"
     inkscape:window-x="-8"
     inkscape:window-y="-8"
     inkscape:window-maximized="1" />
  <metadata
     id="metadata3685">
    <rdf:RDF>
      <cc:Work
         rdf:about="">
        <dc:format>image/svg+xml</dc:format>
        <dc:type
           rdf:resource="http://purl.org/dc/dcmitype/StillImage" />
        <dc:title></dc:title>
      </cc:Work>
    </rdf:RDF>
  </metadata>
  <g
     inkscape:label="Layer 1"
     inkscape:groupmode="layer"
     id="layer1">
    <g
       id="g3713">
      <path
         inkscape:export-ydpi="90"
         inkscape:export-xdpi="90"
         inkscape:export-filename="C:\Users\Tamara Bennett\Documents\Temp\path2864-7a.png"
         sodipodi:nodetypes="cccsccccsccccccccc"
         id="path2832"
         d="M 728.22675,750.60625 C 832.24913,694.1553 886.43653,630.58508 914.77393,563.32199 996.25163,357.08412 910.76013,174.57933 749.6722,37.799473 644.91006,-40.637027 513.34231,-83.247517 380.87472,-86.880457 244.80825,-90.612097 107.79225,-53.219497 -2.0979474,28.712793 -191.24005,172.27348 -248.94605,385.22618 -144.63945,597.11945 c 31.7957,53.21536 79.558803,99.8559 149.5970026,137.32435 l 0,0 c -7.0184,17.95617 -2.9432,51.66352 -11.3119,69.07957 -36.2539996,75.4476 -90.6754986,132.31443 -81.6220996,225.88503 -8.755699,106.3091 14.187,126.5801 80.8121996,28.2842 l 84.8528004,-177.78683 8.0812,173.74623 c -86.9653004,63.4801 -50.2078,82.7735 12.1218,92.934 l 513.157507,4.0407 c 74.72873,6.9417 118.81553,-14.3183 44.44671,-92.9341 l 4.04061,-149.50256 c 49.87301,199.61146 288.48995,379.25286 68.69037,-157.58379 z"
         style="fill:#000000;stroke:#000000;stroke-width:1px;stroke-linecap:butt;stroke-linejoin:miter;stroke-opacity:1" />
      <path
         inkscape:export-ydpi="90"
         inkscape:export-xdpi="90"
         inkscape:export-filename="C:\Users\Tamara Bennett\Documents\Temp\path2864-7a.png"
         sodipodi:nodetypes="csccsc"
         id="path2834"
         d="m -896.89879,150.34795 c 182.26127,-272.83017 512.73993,-60.746733 470.29753,221.25612 -15.3547,102.02267 -89.97069,238.53976 -276.34824,295.94199 30.42035,402.78104 -528.1857,397.53034 -436.3859,-12.12183 -301.0341,-91.86983 -307.2104,-424.50304 -182.0982,-546.49606 49.3464,-48.116253 246.3434,-242.98277 424.53481,41.41978 z"
         style="fill:#e6e6e6;stroke:#000000;stroke-width:1px;stroke-linecap:butt;stroke-linejoin:miter;stroke-opacity:1" />
      <path
         inkscape:export-ydpi="90"
         inkscape:export-xdpi="90"
         inkscape:export-filename="C:\Users\Tamara Bennett\Documents\Temp\path2864-7a.png"
         sodipodi:nodetypes="ccccc"
         id="path2836"
         d="m 306.61677,1377.4343 c -89.99168,7.3751 -64.49978,50.9854 -40.40608,80.8122 92.98783,117.9137 152.49027,57.2385 214.15232,8.0813 61.72183,-57.7038 45.99158,-79.6604 -32.32488,-72.731 l -141.42136,-16.1625 z"
         style="fill:#ff7f2a;stroke:#000000;stroke-width:2;stroke-linecap:butt;stroke-linejoin:miter;stroke-miterlimit:4;stroke-opacity:1;stroke-dasharray:none" />
      <path
         inkscape:export-ydpi="90"
         inkscape:export-xdpi="90"
         inkscape:export-filename="C:\Users\Tamara Bennett\Documents\Temp\path2864-7a.png"
         sodipodi:nodetypes="ccccc"
         id="path2838"
         d="m 97.891553,1678.0146 c -64.4908,4.0619 -82.1973,-21.648 -28.2843,-92.934 78.788697,-35.6823 140.571997,-20.3485 197.989897,8.0812 46.17515,66.2395 31.94239,94.0375 -40.4061,84.8528 l -129.299497,0 z"
         style="fill:#ff7f2a;stroke:#000000;stroke-width:1px;stroke-linecap:butt;stroke-linejoin:miter;stroke-opacity:1" />
      <path
         inkscape:export-ydpi="90"
         inkscape:export-xdpi="90"
         inkscape:export-filename="C:\Users\Tamara Bennett\Documents\Temp\path2864-7a.png"
         sodipodi:nodetypes="ccccc"
         id="path2838-1"
         d="m 630.61706,1681.4879 c 64.4908,4.0619 82.1973,-21.648 28.2843,-92.934 -78.7886,-35.6823 -140.5719,-20.3485 -197.9899,8.0812 -46.1751,66.2394 -31.9424,94.0375 40.4061,84.8528 l 129.2995,0 z"
         style="fill:#ff7f2a;stroke:#000000;stroke-width:1px;stroke-linecap:butt;stroke-linejoin:miter;stroke-opacity:1" />
      <path
         inkscape:export-ydpi="90"
         inkscape:export-xdpi="90"
         inkscape:export-filename="C:\Users\Tamara Bennett\Documents\Temp\path2864-7a.png"
         sodipodi:nodetypes="cccccccccccc"
         id="path2862"
         d="m -873.80376,1491.9087 c 23.9107,69.6226 20.22311,216.5205 92.93404,149.5025 51.8921,15.411 46.42664,-36.9642 -20.20305,-161.6244 l 145.46196,-12.1218 c 62.05074,-49.5274 60.58284,-92.1648 -16.16244,-88.8934 -212.95606,32.9718 -458.69945,11.2979 -703.06615,-8.0813 -47.4747,16.9038 -71.5856,38.4802 -12.1218,76.7716 l 444.46707,28.2843 -40.4061,101.0153 c -3.98392,28.2559 -21.20097,63.1284 36.36549,60.6091 52.0218,26.3047 48.67757,-16.5981 60.60915,-40.4061 l 12.12183,-105.0558 z"
         style="fill:#800000;stroke:#000000;stroke-width:1px;stroke-linecap:butt;stroke-linejoin:miter;stroke-opacity:1" />
      <path
         transform="translate(-1272.6755,237.43784)"
         style="fill:#000000;fill-opacity:1;stroke:none"
         d="m 727.3098,62.412689 c 0,20.084106 -11.75877,36.36549 -26.26396,36.36549 -14.50519,0 -26.26397,-16.281384 -26.26397,-36.36549 0,-20.084105 11.75878,-36.36549 26.26397,-36.36549 14.50519,0 26.26396,16.281385 26.26396,36.36549 z"
         id="path2864" />
      <path
         transform="translate(-1937.3558,205.11295)"
         style="fill:#000000;fill-opacity:1;stroke:none"
         d="m 727.3098,62.412689 c 0,20.084106 -11.75877,36.36549 -26.26396,36.36549 -14.50519,0 -26.26397,-16.281384 -26.26397,-36.36549 0,-20.084105 11.75878,-36.36549 26.26397,-36.36549 14.50519,0 26.26396,16.281385 26.26396,36.36549 z"
         id="path2864-7" />
    </g>
  </g>
</svg>
